HIERARCHY
ROOT Hips
{
 OFFSET 0.000000 0.000000 0.000000
 CHANNELS 6 Xposition Yposition Zposition Yrotation Xrotation Zrotation
 JOINT Chest
 {
  OFFSET 0.000000 9.585900 0.002600
  CHANNELS 3 Yrotation Xrotation Zrotation
  JOINT Chest2
  {
   OFFSET 0.000000 9.601200 -0.005300
   CHANNELS 3 Yrotation Xrotation Zrotation
   JOINT Chest3
   {
    OFFSET 0.000000 9.561800 0.000000
    CHANNELS 3 Yrotation Xrotation Zrotation
    JOINT Chest4
    {
     OFFSET 0.000000 9.552100 0.000000
     CHANNELS 3 Yrotation Xrotation Zrotation
     JOINT Neck
     {
      OFFSET 0.000000 14.453000 0.000000
      CHANNELS 3 Yrotation Xrotation Zrotation
      JOINT Head
      {
       OFFSET 0.000000 8.936500 -0.011300
       CHANNELS 3 Yrotation Xrotation Zrotation
       End Site
       {
        OFFSET 0.000000 17.073600 -0.006000
       }
      }
     }
     JOINT RightCollar
     {
      OFFSET -2.921100 9.558500 0.000000
      CHANNELS 3 Yrotation Xrotation Zrotation
      JOINT RightShoulder
      {
       OFFSET -13.519700 0.000000 0.000000
       CHANNELS 3 Yrotation Xrotation Zrotation
       JOINT RightElbow
       {
        OFFSET 0.000000 -29.696600 0.000000
        CHANNELS 3 Yrotation Xrotation Zrotation
        JOINT RightWrist
        {
         OFFSET 0.000000 -24.004700 0.000000
         CHANNELS 3 Yrotation Xrotation Zrotation
         End Site
         {
          OFFSET 0.000000 -17.728500 0.000000
         }
        }
       }
      }
     }
     JOINT LeftCollar
     {
      OFFSET 2.921100 9.558500 0.000000
      CHANNELS 3 Yrotation Xrotation Zrotation
      JOINT LeftShoulder
      {
       OFFSET 13.519700 0.000000 0.000000
       CHANNELS 3 Yrotation Xrotation Zrotation
       JOINT LeftElbow
       {
        OFFSET 0.000000 -29.696600 0.000000
        CHANNELS 3 Yrotation Xrotation Zrotation
        JOINT LeftWrist
        {
         OFFSET 0.000000 -24.004700 0.000000
         CHANNELS 3 Yrotation Xrotation Zrotation
         End Site
         {
          OFFSET 0.000000 -17.728500 0.000000
         }
        }
       }
      }
     }
    }
   }
  }
 }
 JOINT RightHip
 {
  OFFSET -7.771700 -0.012900 -0.001300
  CHANNELS 3 Yrotation Xrotation Zrotation
  JOINT RightKnee
  {
   OFFSET 0.000000 -40.869800 0.001200
   CHANNELS 3 Yrotation Xrotation Zrotation
   JOINT RightAnkle
   {
    OFFSET 0.000000 -39.717900 0.002100
    CHANNELS 3 Yrotation Xrotation Zrotation
    JOINT RightToe
    {
     OFFSET 0.000000 -4.965400 11.033500
     CHANNELS 3 Yrotation Xrotation Zrotation
     End Site
     {
      OFFSET 0.000000 -1.423100 5.872300
     }
    }
   }
  }
 }
 JOINT LeftHip
 {
  OFFSET 7.771700 -0.012900 -0.001300
  CHANNELS 3 Yrotation Xrotation Zrotation
  JOINT LeftKnee
  {
   OFFSET 0.000000 -40.869800 0.001200
   CHANNELS 3 Yrotation Xrotation Zrotation
   JOINT LeftAnkle
   {
    OFFSET 0.000000 -39.717900 0.002100
    CHANNELS 3 Yrotation Xrotation Zrotation
    JOINT LeftToe
    {
     OFFSET 0.000000 -4.965400 11.033500
     CHANNELS 3 Yrotation Xrotation Zrotation
     End Site
     {
      OFFSET 0.000000 -1.423100 5.872300
     }
    }
   }
  }
 }
}
MOTION
Frames: 13
Frame Time: 0.008333
-62.939166 57.799366 11.659305 177.543423 -49.614891 -3.118553 3.393048 22.212863 3.172030 1.746661 12.725130 1.620782 2.255404 15.887503 2.114964 1.743502 12.735706 1.607357 0.680812 16.046285 3.771198 -0.026645 -5.924380 6.801070 2.507891 2.258594 -0.033017 1.750291 -15.771528 -11.298840 -27.317340 -10.201011 94.636578 -11.013997 -0.912056 -20.634024 -9.975743 -1.554033 0.256396 1.156660 -11.058152 13.654233 23.092760 -16.805349 -88.727506 13.913545 -3.738650 12.446550 6.947246 -21.696522 -1.811244 -33.054290 74.510521 -37.405050 6.797090 -16.390951 13.139584 -0.012208 0.010533 0.008059 -7.774166 -19.397331 5.443475 88.589718 80.597151 88.212806 1.202329 -21.687849 -19.201084 0.012179 0.003346 0.010840
-62.940289 57.799577 11.659718 177.544452 -49.601135 -3.117712 3.388807 22.202400 3.175196 1.745556 12.719851 1.623569 2.251541 15.878971 2.117211 1.745121 12.732250 1.610798 0.662672 16.057550 3.746432 -0.120335 -5.909069 6.697945 2.508790 2.262322 -0.048084 1.746484 -15.760233 -11.289651 -27.297161 -10.120939 94.596131 -11.002695 -0.942866 -20.676163 -9.983373 -1.555780 0.256325 1.164542 -11.054584 13.636930 23.067078 -16.745100 -88.682944 13.930246 -3.722991 12.469470 6.947652 -21.711099 -1.812057 -33.039223 74.514341 -37.393475 6.777303 -16.386831 13.141159 -0.012715 0.005672 0.008768 -7.772745 -19.413864 5.445169 88.598407 80.600896 88.222697 1.206678 -21.687719 -19.202826 0.010532 0.003797 0.010934
-62.941086 57.800625 11.659201 177.544735 -49.594446 -3.118131 3.387836 22.197113 3.181948 1.743270 12.714182 1.625692 2.244359 15.872226 2.119278 1.746698 12.726608 1.612248 0.646535 16.070419 3.721816 -0.193019 -5.902521 6.616467 2.508922 2.276682 -0.062200 1.746405 -15.756361 -11.285064 -27.281736 -10.045104 94.556340 -10.958516 -0.956291 -20.676153 -9.994059 -1.555673 0.259157 1.177104 -11.049324 13.620528 23.051185 -16.701264 -88.652875 13.948157 -3.710048 12.497927 6.949994 -21.718491 -1.809969 -33.051499 74.515599 -37.405260 6.768166 -16.384387 13.140151 -0.012647 0.002124 0.011447 -7.771440 -19.422025 5.447815 88.603880 80.603427 88.229894 1.208068 -21.681318 -19.200238 0.006319 -0.001687 0.008062
-62.941804 57.801754 11.658326 177.543469 -49.589121 -3.118020 3.379453 22.194665 3.191657 1.738508 12.703875 1.627411 2.244446 15.871921 2.114402 1.741085 12.718266 1.612903 0.616660 16.077372 3.684838 -0.234705 -5.889481 6.550223 2.526746 2.276238 -0.080238 1.733781 -15.737522 -11.276188 -27.259781 -9.917165 94.498257 -10.895498 -0.985475 -20.699000 -9.995398 -1.554725 0.265322 1.186259 -11.041566 13.603461 23.049350 -16.680376 -88.647241 13.974474 -3.694554 12.536592 6.951872 -21.722426 -1.807348 -33.089004 74.506336 -37.441994 6.779824 -16.383614 13.140133 -0.017366 -0.002277 0.008524 -7.766725 -19.426886 5.450592 88.608178 80.598077 88.234203 1.204140 -21.680660 -19.195572 0.006646 -0.002762 0.005405
-62.943022 57.801256 11.658504 177.544245 -49.571634 -3.117246 3.375535 22.179037 3.191332 1.738086 12.701297 1.626726 2.242111 15.868270 2.121362 1.736666 12.703315 1.627344 0.583401 16.087749 3.635368 -0.277559 -5.876963 6.480508 2.545000 2.260952 -0.096591 1.721770 -15.703568 -11.269754 -27.250691 -9.873520 94.465861 -10.904776 -1.014331 -20.744095 -10.020632 -1.561010 0.275540 1.221278 -11.019642 13.569897 23.029164 -16.635129 -88.610142 13.964146 -3.692669 12.536163 6.958026 -21.740257 -1.814209 -33.120460 74.507387 -37.467304 6.789278 -16.388205 13.140451 -0.012083 -0.004807 0.005263 -7.760925 -19.445086 5.451878 88.596811 80.597725 88.225775 1.202255 -21.679389 -19.190701 0.012923 -0.002180 0.004720
-62.943998 57.802358 11.657043 177.547499 -49.567648 -3.120103 3.372471 22.178288 3.193487 1.735503 12.699783 1.632161 2.241793 15.866153 2.115582 1.735535 12.699792 1.632231 0.525501 16.080218 3.574327 -0.297749 -5.861569 6.425981 2.550266 2.255725 -0.103121 1.709999 -15.697527 -11.253827 -27.234900 -9.842330 94.437682 -10.900642 -1.033346 -20.767937 -10.024938 -1.560881 0.271968 1.225966 -11.016384 13.569707 23.004113 -16.603200 -88.582458 13.956272 -3.702415 12.529849 6.960577 -21.741370 -1.816677 -33.136728 74.507177 -37.477530 6.794417 -16.393277 13.139591 -0.008427 -0.006565 0.002448 -7.746915 -19.450758 5.447507 88.579861 80.598533 88.225138 1.202722 -21.676846 -19.190118 0.013567 -0.003960 0.003913
-62.944873 57.802459 11.656170 177.545157 -49.557343 -3.120311 3.369993 22.171156 3.198992 1.734296 12.695328 1.635364 2.240503 15.860566 2.119479 1.734522 12.689454 1.646470 0.486491 16.092262 3.513841 -0.343340 -5.858415 6.350568 2.556859 2.250546 -0.125372 1.697079 -15.677795 -11.238935 -27.221142 -9.819886 94.408332 -10.894152 -1.045211 -20.780410 -10.040584 -1.564037 0.256872 1.227331 -11.001489 13.581357 23.004883 -16.560673 -88.575865 13.936450 -3.713726 12.510663 6.964179 -21.750964 -1.817571 -33.144688 74.508799 -37.482074 6.800198 -16.398381 13.138933 -0.006697 -0.006527 0.001094 -7.736849 -19.461992 5.448211 88.579516 80.597321 88.233190 1.204647 -21.675605 -19.192764 0.010906 -0.004993 0.006414
-62.946195 57.802273 11.655262 177.541078 -49.546396 -3.117359 3.362598 22.170351 3.203517 1.738182 12.686080 1.634201 2.233882 15.856083 2.130182 1.736633 12.693007 1.628138 0.452758 16.087845 3.478030 -0.387287 -5.860801 6.272093 2.561944 2.230373 -0.119873 1.685322 -15.664232 -11.224201 -27.205640 -9.811134 94.380521 -10.891821 -1.052024 -20.786347 -10.083072 -1.585565 0.300479 1.269951 -10.976528 13.548635 22.996060 -16.537985 -88.565237 13.940934 -3.711163 12.517833 6.968166 -21.763849 -1.820649 -33.150940 74.513263 -37.486263 6.798212 -16.399321 13.140466 -0.007687 -0.009572 -0.000691 -7.727741 -19.475165 5.446336 88.581627 80.598222 88.242971 1.206925 -21.673680 -19.193217 0.011536 -0.005487 0.005845
-62.947897 57.801544 11.654558 177.540560 -49.532851 -3.115517 3.355289 22.161807 3.201024 1.738132 12.684680 1.637964 2.226909 15.853346 2.135844 1.737755 12.689643 1.626509 0.418534 16.085368 3.429514 -0.429702 -5.868172 6.191012 2.569123 2.222239 -0.129035 1.680719 -15.654715 -11.221825 -27.200544 -9.801283 94.365299 -10.883062 -1.052510 -20.783201 -10.098599 -1.593111 0.305671 1.286222 -10.963708 13.541614 22.992123 -16.516804 -88.556043 13.932147 -3.712929 12.514903 6.969355 -21.778639 -1.827388 -33.145582 74.516364 -37.480028 6.798377 -16.399563 13.144814 -0.005854 -0.010646 -0.004709 -7.722476 -19.491757 5.443494 88.570779 80.597120 88.233610 1.209146 -21.668667 -19.188137 0.008779 -0.005321 0.003914
-62.948749 57.800813 11.653769 177.531545 -49.520863 -3.112479 3.359255 22.151025 3.204078 1.729850 12.686816 1.642200 2.225998 15.852657 2.139753 1.735094 12.684782 1.627332 0.404256 16.085166 3.395809 -0.487693 -5.886668 6.098135 2.577740 2.221199 -0.143684 1.662591 -15.654381 -11.194544 -27.175454 -9.795406 94.337658 -10.864058 -1.056672 -20.781214 -10.111746 -1.600203 0.307246 1.307049 -10.953314 13.530130 22.980307 -16.505967 -88.545353 13.910834 -3.726763 12.499865 6.974152 -21.792796 -1.827165 -33.134200 74.521006 -37.467621 6.797695 -16.399282 13.143637 -0.004356 -0.011843 -0.004240 -7.714356 -19.505311 5.445718 88.574087 80.595929 88.242294 1.211877 -21.666167 -19.191425 0.005188 -0.005691 0.005016
-62.949645 57.800183 11.652672 177.528085 -49.511167 -3.112985 3.355685 22.147429 3.208100 1.718467 12.693614 1.651988 2.230771 15.844567 2.130391 1.731606 12.681240 1.633029 0.388744 16.082249 3.360540 -0.545868 -5.912209 6.005897 2.585009 2.218338 -0.161747 1.650108 -15.652806 -11.176695 -27.159788 -9.793587 94.323102 -10.851604 -1.059564 -20.776889 -10.127186 -1.609586 0.305624 1.328279 -10.942019 13.521256 22.971809 -16.492893 -88.538033 13.884099 -3.738448 12.479315 6.976205 -21.805087 -1.825686 -33.148768 74.522226 -37.479037 6.801065 -16.398608 13.141025 -0.003199 -0.013885 -0.003827 -7.709098 -19.515486 5.447274 88.569890 80.596372 88.244146 1.209942 -21.663450 -19.194102 0.005759 -0.007841 0.006931
-62.951530 57.799005 11.651743 177.521213 -49.498689 -3.104173 3.350269 22.145470 3.206421 1.714909 12.692435 1.651589 2.235747 15.837965 2.124900 1.714225 12.691911 1.660571 0.325129 16.055584 3.260750 -0.556726 -5.929680 5.946565 2.594543 2.196242 -0.195797 1.648208 -15.642976 -11.162447 -27.152898 -9.799426 94.312087 -10.843081 -1.065217 -20.774594 -10.130362 -1.634368 0.286826 1.339031 -10.917165 13.523439 22.987969 -16.475375 -88.542643 13.847948 -3.741864 12.453747 6.982366 -21.819246 -1.832504 -33.153892 74.525853 -37.486917 6.789851 -16.395119 13.144251 -0.006903 -0.016442 -0.002273 -7.702088 -19.528623 5.444142 88.579630 80.599486 88.253018 1.212378 -21.665130 -19.191383 0.004521 -0.006969 0.006345
-62.952156 57.798228 11.650378 177.515666 -49.490205 -3.102462 3.339291 22.152120 3.209945 1.716261 12.686963 1.648787 2.236295 15.837248 2.127256 1.705434 12.694754 1.659518 0.305008 16.040884 3.219903 -0.606757 -5.966170 5.862628 2.594155 2.174764 -0.212877 1.650820 -15.632520 -11.144052 -27.146763 -9.808474 94.304093 -10.828993 -1.067686 -20.770053 -10.126140 -1.649991 0.279449 1.341327 -10.903450 13.523572 22.998154 -16.466585 -88.541533 13.826617 -3.743330 12.435821 6.984568 -21.833290 -1.829549 -33.186546 74.528066 -37.521232 6.782237 -16.379922 13.153333 -0.010608 -0.027556 -0.007798 -7.698465 -19.536830 5.446317 88.598108 80.600907 88.274422 1.216378 -21.668047 -19.193844 0.003808 -0.006693 0.006206
